<svg id="Ebene_2" xmlns="http://www.w3.org/2000/svg" style="width:100%; height:auto;" viewBox="0 0 119.85 33.95">
                                <defs>
                                    <style>.cls-1 {
                                        fill: #f80;
                                    }

                                    .cls-2 {
                                        fill: #181716;
                                    }</style>
                                </defs>
                                <g id="B_R_Logo_RGB_33px">
                                    <g>
                                        <path id="Path_48" d="M25.26,19.51c-.48-.59-.52-1.43-.11-2.07,.52-.65,1.2-1.16,1.98-1.47l.48,.59,2.19,2.78c-.53,.35-1.08,.65-1.66,.91-.82,.26-1.71,.14-2.43-.33-.17-.12-.31-.26-.44-.42m12.56,3.88l-3.53-4.4,1.55-1.91-2.07-2.58-1.55,1.91-3.9-4.88,5.46,.02v-3.76h-10.4v3.5l1.66,2.08c-.18,.09-1.34,.61-1.72,.87-1.1,.67-1.93,1.71-2.34,2.94-.62,2.32,.46,4.76,2.59,5.85,2.05,1.04,4.81,.83,6.87-.1,.42-.2,.83-.44,1.2-.72,.04-.03,.16-.12,.31-.23l1.14,1.41h4.73Z"></path>
                                        <path id="Path_49" class="cls-2" d="M44.2,10.74V4.46h5.51c2.29,0,3.72,.96,3.72,3.14,0,1.99-1.34,3.14-3.72,3.14h-5.51Zm8.64,4.01s5.31-1.1,5.31-7.3c0-4.36-2.68-7.45-8.1-7.45h-11.07V23.39h5.21V14.75h2.5l6.92,8.64h6.16l-6.94-8.64Z"></path>
                                        <rect id="Rectangle_78" class="cls-1" y="27.34" width="59.78" height="5.2"></rect>
                                        <path id="Path_50" d="M10.72,19.49H5.2v-6.5h5.62c2.27,0,3.62,1.12,3.62,3.25,0,2-1.29,3.25-3.72,3.25M5.2,3.97h5c1.9,0,3.03,1,3.03,2.78s-1.13,2.91-3.29,2.91H5.2V3.97Zm10.19,7.29c1.9-.9,3.08-2.84,3-4.94,0-3.84-2.78-6.32-7.45-6.32H0V23.39H11.33c5.26,0,7.78-3.03,7.78-6.55,.13-2.48-1.38-4.75-3.71-5.58"></path>
                                        <g>
                                            <path class="cls-2" d="M68.38,17.55l2.01,5.3h-1.06l-.43-1.24h-2.14l-.42,1.24h-1.05l2.01-5.3h1.08Zm-1.34,3.24h1.58l-.79-2.33-.79,2.33Z"></path>
                                            <path class="cls-2" d="M74.95,18.75c.28,0,.52,.07,.73,.22,.21,.15,.36,.36,.47,.64,.13-.27,.31-.49,.57-.64s.54-.23,.87-.23c.46,0,.83,.15,1.08,.45,.26,.3,.39,.72,.39,1.27v2.38h-.93v-2.33c0-.32-.07-.55-.2-.72-.13-.16-.33-.24-.6-.24-.28,0-.51,.09-.67,.28-.16,.19-.25,.45-.25,.78v2.22h-.93v-2.33c0-.32-.07-.55-.2-.72-.13-.16-.33-.24-.59-.24-.29,0-.52,.1-.68,.29-.16,.19-.24,.46-.24,.81v2.18h-.93v-3.99h.85v.6c.13-.23,.3-.41,.51-.53,.21-.12,.46-.18,.73-.18Z"></path>
                                            <path class="cls-2" d="M83.61,22.52c-.17,.14-.39,.25-.66,.33s-.56,.11-.89,.11c-.67,0-1.2-.19-1.58-.56-.39-.37-.58-.89-.58-1.54,0-.42,.09-.79,.26-1.11,.17-.32,.41-.56,.71-.74,.3-.17,.63-.26,1.01-.26,.54,0,.97,.17,1.29,.52,.32,.35,.47,.82,.47,1.41v.44h-2.81c.04,.34,.16,.61,.38,.79,.22,.19,.5,.28,.86,.28,.22,0,.45-.03,.67-.1,.23-.06,.41-.15,.56-.25l.29,.67Zm-1.75-3.02c-.27,0-.5,.08-.68,.25-.18,.17-.29,.4-.33,.7h1.92c-.02-.3-.1-.53-.26-.7s-.37-.25-.65-.25Z"></path>
                                            <path class="cls-2" d="M86.61,18.75c.28,0,.52,.07,.73,.22,.21,.15,.36,.36,.47,.64,.13-.27,.31-.49,.57-.64s.54-.23,.87-.23c.46,0,.83,.15,1.08,.45,.26,.3,.39,.72,.39,1.27v2.38h-.93v-2.33c0-.32-.07-.55-.2-.72-.13-.16-.33-.24-.6-.24-.28,0-.51,.09-.67,.28-.16,.19-.25,.45-.25,.78v2.22h-.93v-2.33c0-.32-.07-.55-.2-.72-.13-.16-.33-.24-.59-.24-.29,0-.52,.1-.68,.29-.16,.19-.24,.46-.24,.81v2.18h-.93v-3.99h.85v.6c.13-.23,.3-.41,.51-.53,.21-.12,.46-.18,.73-.18Z"></path>
                                            <path class="cls-2" d="M91.77,22.85v-5.69h.93v2.31c.14-.23,.33-.4,.57-.53,.23-.13,.49-.19,.78-.19,.36,0,.69,.09,.97,.28s.5,.44,.65,.75c.15,.32,.23,.68,.23,1.08s-.08,.79-.25,1.1c-.16,.32-.38,.56-.66,.74-.28,.17-.59,.26-.94,.26-.29,0-.55-.06-.79-.19s-.43-.3-.58-.53v.61h-.9Zm2.05-.7c.33,0,.6-.12,.81-.36,.21-.24,.32-.55,.32-.92s-.11-.68-.32-.93c-.21-.25-.48-.37-.81-.37-.34,0-.62,.12-.84,.36-.22,.24-.33,.55-.33,.93s.11,.68,.33,.92c.22,.24,.5,.36,.84,.36Z"></path>
                                            <path class="cls-2" d="M100.27,22.52c-.17,.14-.39,.25-.66,.33s-.56,.11-.89,.11c-.67,0-1.2-.19-1.58-.56-.39-.37-.58-.89-.58-1.54,0-.42,.09-.79,.26-1.11,.17-.32,.41-.56,.71-.74,.3-.17,.63-.26,1.01-.26,.54,0,.97,.17,1.29,.52,.32,.35,.47,.82,.47,1.41v.44h-2.81c.04,.34,.16,.61,.38,.79,.22,.19,.5,.28,.86,.28,.22,0,.45-.03,.67-.1,.23-.06,.41-.15,.56-.25l.29,.67Zm-1.75-3.02c-.27,0-.5,.08-.68,.25-.18,.17-.29,.4-.33,.7h1.92c-.02-.3-.1-.53-.26-.7s-.37-.25-.65-.25Z"></path>
                                            <path class="cls-2" d="M103.61,19.71c-.08-.03-.22-.04-.41-.04-.35,0-.62,.1-.81,.31s-.29,.5-.29,.87v2h-.93v-3.99h.85v.74c.12-.25,.28-.45,.49-.58,.21-.14,.45-.21,.73-.21,.12,0,.24,.02,.36,.06v.85Z"></path>
                                            <path class="cls-2" d="M108.16,22.96c-.42,0-.79-.09-1.11-.28-.32-.18-.57-.44-.74-.75s-.26-.67-.26-1.07c0-.42,.09-.79,.28-1.11,.19-.32,.44-.57,.76-.74,.32-.17,.68-.26,1.07-.26s.78,.09,1.1,.28c.32,.19,.57,.44,.74,.76,.17,.32,.26,.68,.26,1.07s-.09,.78-.28,1.1c-.19,.32-.44,.57-.76,.74-.32,.17-.67,.26-1.06,.26Zm0-.81c.34,0,.62-.12,.83-.36,.22-.24,.33-.55,.33-.92s-.11-.68-.33-.93c-.22-.25-.5-.37-.83-.37s-.62,.12-.83,.37c-.22,.25-.33,.56-.33,.93s.11,.68,.33,.92c.22,.24,.5,.36,.83,.36Z"></path>
                                            <path class="cls-2" d="M111.48,22.85v-3.22h-.67v-.77h.67v-.13c0-.54,.13-.95,.4-1.24,.27-.29,.65-.44,1.14-.44,.13,0,.26,.01,.39,.04s.25,.07,.34,.12l-.18,.71c-.12-.06-.25-.1-.4-.1-.26,0-.45,.07-.58,.21-.13,.14-.19,.36-.19,.67v.15h1.17v.77h-1.17v3.22h-.93Z"></path>
                                            <path class="cls-2" d="M67.48,32.46c-.44,0-.78-.12-1-.37-.23-.25-.34-.61-.34-1.09v-1.87h-.67v-.77h.42c.12,0,.2-.02,.25-.07,.05-.05,.07-.13,.07-.25v-.68h.85v1h1.2v.77h-1.2v1.76c0,.27,.05,.47,.15,.6s.25,.19,.47,.19,.42-.05,.62-.14l.16,.7c-.11,.07-.25,.13-.42,.17-.17,.04-.36,.06-.55,.06Z"></path>
                                            <path class="cls-2" d="M71.92,32.35v-2.33c0-.32-.07-.55-.21-.72s-.35-.24-.62-.24c-.3,0-.53,.1-.7,.29-.17,.2-.25,.47-.25,.82v2.17h-.93v-5.69h.93v2.23c.13-.21,.29-.36,.5-.47,.21-.11,.44-.17,.7-.17,.47,0,.84,.15,1.11,.46s.4,.72,.4,1.26v2.38h-.93Z"></path>
                                            <path class="cls-2" d="M77.4,32.02c-.17,.14-.39,.25-.66,.33s-.56,.11-.89,.11c-.67,0-1.2-.19-1.58-.56-.39-.37-.58-.89-.58-1.54,0-.42,.09-.79,.26-1.11,.17-.32,.41-.56,.71-.74,.3-.17,.63-.26,1.01-.26,.54,0,.97,.17,1.29,.52,.32,.35,.47,.82,.47,1.41v.44h-2.81c.04,.34,.16,.61,.38,.79,.22,.19,.5,.28,.86,.28,.22,0,.45-.03,.67-.1,.23-.06,.41-.15,.56-.25l.29,.67Zm-1.75-3.02c-.27,0-.5,.08-.68,.25-.18,.17-.29,.4-.33,.7h1.92c-.02-.3-.1-.53-.26-.7s-.37-.25-.65-.25Z"></path>
                                            <path class="cls-2" d="M82.78,27.05l2.01,5.3h-1.06l-.43-1.24h-2.14l-.42,1.24h-1.05l2.01-5.3h1.08Zm-1.34,3.24h1.58l-.79-2.33-.79,2.33Z"></path>
                                            <path class="cls-2" d="M85.48,27.05h1.94c.54,0,.97,.12,1.28,.36,.31,.24,.47,.57,.47,.98,0,.24-.05,.45-.16,.63-.11,.18-.26,.33-.45,.43,.34,.11,.6,.27,.78,.49,.17,.22,.26,.5,.26,.84,0,.51-.18,.9-.53,1.16-.35,.26-.87,.4-1.55,.4h-2.04v-5.3Zm1.91,2.12c.27,0,.48-.06,.63-.17s.22-.28,.22-.5-.08-.37-.23-.49-.37-.17-.65-.17h-.92v1.33h.94Zm.11,2.38c.38,0,.66-.06,.85-.19,.18-.13,.28-.33,.28-.59s-.1-.47-.28-.61c-.19-.14-.47-.21-.83-.21h-1.06v1.6h1.05Z"></path>
                                            <path class="cls-2" d="M90.57,27.05h1.94c.54,0,.97,.12,1.28,.36,.31,.24,.47,.57,.47,.98,0,.24-.05,.45-.16,.63s-.26,.33-.45,.43c.34,.11,.6,.27,.78,.49,.17,.22,.26,.5,.26,.84,0,.51-.18,.9-.53,1.16-.35,.26-.87,.4-1.55,.4h-2.04v-5.3Zm1.91,2.12c.27,0,.48-.06,.63-.17s.22-.28,.22-.5-.08-.37-.23-.49-.37-.17-.65-.17h-.92v1.33h.94Zm.11,2.38c.38,0,.66-.06,.85-.19,.18-.13,.28-.33,.28-.59s-.1-.47-.28-.61c-.19-.14-.47-.21-.83-.21h-1.06v1.6h1.05Z"></path>
                                            <path class="cls-2" d="M101.15,30.35h-1.1v-.85h1.47c.22,0,.36,.04,.44,.12,.08,.08,.12,.22,.12,.43v1.88c-.51,.36-1.15,.54-1.94,.54-.44,0-.83-.07-1.19-.21-.36-.14-.66-.33-.9-.58-.24-.25-.43-.54-.55-.87-.13-.33-.19-.7-.19-1.1,0-.56,.12-1.06,.35-1.48,.23-.42,.56-.74,.98-.97,.42-.22,.89-.34,1.42-.34,.38,0,.74,.06,1.08,.19,.33,.13,.6,.3,.81,.52l-.53,.68c-.17-.15-.37-.27-.61-.36-.23-.09-.48-.13-.72-.13-.54,0-.97,.17-1.29,.5s-.48,.79-.48,1.36,.16,1.05,.49,1.38,.78,.5,1.36,.5c.39,0,.71-.06,.97-.17v-1.06Z"></path>
                                            <path class="cls-2" d="M105.51,29.21c-.08-.03-.22-.04-.41-.04-.35,0-.62,.1-.81,.31-.19,.21-.29,.5-.29,.87v2h-.93v-3.99h.85v.74c.12-.25,.28-.45,.49-.58,.21-.14,.45-.21,.73-.21,.12,0,.24,.02,.36,.06v.85Z"></path>
                                            <path class="cls-2" d="M108.09,32.46c-.42,0-.79-.09-1.11-.28-.32-.18-.57-.44-.74-.75s-.26-.67-.26-1.07c0-.42,.09-.79,.28-1.11,.19-.32,.44-.57,.76-.74,.32-.17,.68-.26,1.07-.26s.78,.09,1.1,.28c.32,.19,.57,.44,.74,.76,.17,.32,.26,.68,.26,1.07s-.09,.78-.28,1.1c-.19,.32-.44,.57-.76,.74-.32,.17-.67,.26-1.06,.26Zm0-.81c.34,0,.62-.12,.83-.36,.22-.24,.33-.55,.33-.92s-.11-.68-.33-.93c-.22-.25-.5-.37-.83-.37s-.62,.12-.83,.37c-.22,.25-.33,.56-.33,.93s.11,.68,.33,.92c.22,.24,.5,.36,.83,.36Z"></path>
                                            <path class="cls-2" d="M112.54,32.46c-.47,0-.84-.15-1.1-.45-.27-.3-.4-.72-.4-1.26v-2.39h.92v2.33c0,.31,.07,.55,.21,.71s.34,.25,.61,.25c.3,0,.53-.1,.7-.29s.25-.47,.25-.83v-2.17h.93v3.99h-.85v-.57c-.13,.22-.31,.39-.53,.51-.22,.12-.46,.17-.74,.17Z"></path>
                                            <path class="cls-2" d="M115.74,33.95v-5.59h.9v.61c.15-.23,.34-.4,.58-.53,.24-.13,.5-.19,.79-.19,.36,0,.69,.09,.97,.28s.5,.44,.65,.75c.15,.32,.23,.68,.23,1.08s-.08,.79-.25,1.1c-.16,.32-.38,.56-.66,.74-.28,.17-.59,.26-.94,.26-.29,0-.55-.06-.78-.18-.23-.12-.42-.29-.56-.52v2.18h-.93Zm2.05-2.3c.33,0,.6-.12,.81-.36,.21-.24,.32-.55,.32-.92s-.11-.68-.32-.93c-.21-.25-.48-.37-.81-.37s-.62,.12-.84,.36c-.22,.24-.33,.55-.33,.93s.11,.68,.33,.92c.22,.24,.5,.36,.84,.36Z"></path>
                                        </g>
                                    </g>
                                </g>
                            </svg>