<?xml version="1.0" encoding="UTF-8" standalone="no"?>
<svg
   xmlns:svg="http://www.w3.org/2000/svg"
   xmlns="http://www.w3.org/2000/svg"
   version="1.1"
   width="530.11737"
   height="71.765205"
   id="svg4290">
  <defs
     id="defs4292" />
  <g
     transform="translate(-84.94132,-496.47958)"
     id="layer1">
    <path
       d="m 365.30978,560.64348 -0.51223,-2.82365 c -0.59633,-3.28492 -0.22936,-5.02804 -0.68552,-8.52957 -0.11465,-1.18502 -1.30735,-4.32722 -3.53211,-5.75943 l -1.13915,-0.73649 1.59531,-1.12896 c 2.26045,-1.6004 2.82111,-3.48369 3.47605,-6.15699 0.55047,-2.2477 0.56066,-3.70031 -0.056,-5.93018 -0.87155,-3.14984 -2.07441,-5.30581 -5.04841,-6.71508 -1.83233,-0.86901 -3.06322,-1.08054 -5.09686,-1.08054 l -20.3415,0 0,40.27527 8.20593,0 0,-15.59125 8.66208,0 1.19521,0 c 1.08308,0 1.9368,0.39246 2.56371,1.07289 1.70999,1.80682 1.99542,3.61366 2.16616,6.26911 0.17075,2.71153 -0.01,4.44445 0.79765,7.12029 l 0.34149,1.12896 7.80582,0 -0.39756,-1.41438 z m -8.7742,-25.58616 c -0.28543,2.93834 -2.05404,4.42916 -4.55913,4.57442 l -1.93935,0.11467 -7.86188,0 0,-10.84607 8.83027,0 1.02702,0 c 2.3369,0.2268 3.98827,0.90469 4.50307,4.1794 0.056,0.56575 0.056,1.29969 0,1.97758 m 252.16176,-1.22477 0,-0.93017 c 0,-7.46179 -6.7788,-12.09226 -14.98471,-12.01836 -7.38023,0 -14.08513,4.72732 -13.86088,12.91031 0.11216,4.50305 3.22122,7.62743 7.11775,9.15392 9.88787,3.94241 14.61011,2.22987 14.94904,8.14731 0.22426,3.90673 -4.57186,4.87514 -7.11774,4.64832 -3.44547,-0.29561 -6.5367,-1.26911 -7.60449,-4.53874 -0.24466,-0.73904 -0.34149,-1.1901 -0.34149,-1.96993 l 0,-0.56065 -8.20337,0 0,1.19521 c 0,8.62641 7.96636,13.3945 16.10858,13.20593 7.83384,-0.18604 15.62692,-4.39093 15.28797,-12.94853 -0.6371,-16.44243 -23.60604,-9.63559 -22.17891,-18.56526 0.97095,-6.21306 13.18809,-4.50052 12.81091,1.15444 0,0.25994 0.13248,0.35932 0.11465,0.59378 l -0.0382,0.52242 7.94087,0 z m -80.24267,1.67584 7.9205,0 -0.1733,-1.01682 c -0.33894,-2.03363 -0.90978,-5.47911 -4.95412,-9.71458 -3.02244,-3.1626 -6.40674,-3.91948 -10.94294,-3.89653 -3.92967,0.0204 -6.31753,0.75942 -9.6891,2.76757 -6.64628,3.9628 -8.31804,10.33641 -8.5474,17.79054 -0.28288,10.50715 5.2472,21.57749 17.09992,21.8043 8.31804,0.11213 15.63712,-4.70949 17.09226,-12.87973 0.21407,-1.19521 0.26503,-1.89602 0.17075,-3.10651 l -0.056,-0.73395 -7.9791,0 0,1.24362 c 0,4.42152 -3.87105,8.13202 -8.20593,7.90521 -6.26657,-0.39501 -8.43018,-4.00867 -9.74261,-8.86596 -0.51223,-1.86545 -0.45872,-3.40724 -0.4001,-5.59124 0.0637,-2.32416 0.56829,-4.57441 1.02957,-5.87412 1.48061,-4.1794 4.85474,-7.19928 9.45719,-7.0056 3.05555,0.12996 5.14271,1.34046 6.78135,3.89909 0.73139,1.14169 0.93782,1.9368 1.13915,3.27471 m 13.90438,-13.72504 8.26198,0 0,15.98371 15.04333,0 0,-15.98371 8.20848,0 0,40.55305 -8.20848,0 0,-17.33946 -15.04333,0 0,17.33946 -8.26198,0 0,-40.55305 z m -77.78395,0 8.20846,0 0,23.21359 0.16819,3.39194 c 0.12737,2.48727 0.94292,4.24058 3.01988,5.64731 1.51887,1.02446 2.72426,1.13149 4.55913,1.18502 2.05403,0.0612 3.47605,0.0254 5.12997,-1.18502 1.97504,-1.4475 2.67839,-3.21866 2.67839,-5.64731 l 0,-3.39194 0,-23.21359 8.26199,0 0,25.81297 -0.17074,2.42865 c -0.45363,6.40674 -4.77829,10.69064 -11.05505,12.31143 -1.7941,0.46636 -2.87462,0.50714 -4.72988,0.50968 -1.96228,0.006 -3.11672,0.0993 -5.01529,-0.395 -6.23598,-1.6259 -9.75027,-6.07544 -10.82825,-12.37005 -0.15801,-0.93527 -0.2268,-1.47808 -0.2268,-2.42864 l 0,-25.86904 z m -30.77042,0 26.38382,0 0,7.45669 -18.12183,0 0,8.6417 15.78491,0 0,7.1152 -15.78491,0 0,17.05913 -8.26199,0 0,-40.27272 z m -4.55888,22.87566 -11.62589,0 0,-11.52142 -5.86901,0 0,11.52142 -11.67942,0 0,5.81805 11.67942,0 0,11.58003 5.86901,0 0,-11.58003 11.62589,0 0,-5.81805 z m -57.83899,-22.87566 8.262,0 0,32.8721 18.12183,0 0,7.40062 -26.38383,0 0,-40.27272 z m -71.51585,0.0604 27.97912,0 0,7.40061 -19.71713,0 0,8.69522 18.12183,0 0,7.06167 -18.12183,0 0,9.71459 19.71713,0 0,7.40061 -27.97912,0 0,-40.2727 z m -103.76744,-0.0551 27.97913,0 0,7.39807 -19.71713,0 0,8.69776 18.11927,0 0,7.05913 -18.11927,0 0,9.71459 19.71713,0 0,7.40061 -27.97913,0 0,-40.27016 z m 98.52687,13.09864 c 0.11465,-5.19624 -2.73701,-11.58004 -9.17431,-12.93579 -0.62692,-0.11216 -1.2156,-0.11216 -1.99543,-0.11216 l -18.57545,0 0,40.21665 8.31806,0 0,-14.40367 9.45973,0 1.65394,-0.11213 c 6.49082,-0.44343 10.19878,-6.72275 10.31346,-12.65292 m -8.03518,0 c -0.051,2.69623 -1.48317,5.38482 -4.10295,5.59124 l -1.42458,0.11468 -7.86442,0 0,-11.69217 8.14985,0 c 0.44597,0 0.74159,0.11213 1.13915,0.11213 2.84912,0.28288 4.15647,3.08868 4.10295,5.87411 m -26.6677,3e-5 c 0.11464,-5.19624 -2.737,-11.58004 -9.17433,-12.93579 -0.62689,-0.11216 -1.21558,-0.11216 -1.99541,-0.11216 l -18.57545,0 0,40.21665 8.31805,0 0,-14.40367 9.45975,0 1.65391,-0.11213 c 6.49085,-0.44343 10.19881,-6.72275 10.31348,-12.65292 m -8.03518,0 c -0.051,2.69623 -1.48318,5.38482 -4.10297,5.59124 l -1.42455,0.11468 -7.86444,0 0,-11.69217 8.14987,0 c 0.44597,0 0.74159,0.11213 1.13912,0.11213 2.84915,0.28288 4.15649,3.08868 4.10297,5.87411 m -60.85861,3e-5 c 0.11462,-5.19624 -2.73705,-11.58003 -9.17435,-12.93579 -0.62691,-0.11215 -1.2156,-0.11215 -1.99541,-0.11215 l -18.57545,0 0,40.21665 8.31804,0 0,-14.40368 9.45976,0 1.65391,-0.11213 c 6.49083,-0.44342 10.19878,-6.72273 10.31347,-12.65292 m -8.03517,0 c -0.051,2.69624 -1.48318,5.38482 -4.10297,5.59124 l -1.42457,0.11468 -7.86443,0 0,-11.69217 8.14986,0 c 0.44597,0 0.74159,0.11213 1.13914,0.11213 2.84914,0.28288 4.15649,3.0887 4.10297,5.87411"
       id="path286"
       style="fill:#231f20;fill-opacity:1;fill-rule:nonzero;stroke:none" />
    <path
       d="m 89.94132,562.01988 61.14429,0 0,-60.5403 -61.14429,0 0,60.5403 z"
       id="path288"
       style="fill:#03b39b;fill-opacity:1;fill-rule:nonzero;stroke:none" />
    <path
       d="m 129.59783,526.10395 -24.0673,0 0,32.32164 8.36903,0 0,-27.18912 13.56015,0 c 1.23598,0 2.43119,0.51224 3.27472,1.40674 0.77727,0.82314 1.16462,1.87053 1.09071,2.95107 -0.14016,2.0948 -2.01834,3.67992 -4.36543,3.67992 l -3.72325,0 0,-5.52244 -7.72936,0 0,11.50359 12.52039,0 c 2.73955,0 5.44343,-1.00409 7.421,-2.7625 2.05149,-1.81957 3.18043,-4.27625 3.18043,-6.92151 -0.006,-5.21662 -4.28133,-9.46739 -9.53109,-9.46739 m -13.59149,-1.66667 7.72936,0 0,-3.39959 10.68809,0 0,-5.56067 -10.68809,0 0,-2.42098 c 0,-0.6881 0.21151,-1.18249 0.72884,-1.70234 0.81804,-0.81552 1.62335,-1.14934 2.78033,-1.14934 l 7.17892,0 0,-5.34659 -9.74262,0 c -2.60194,0 -4.91847,0.81804 -7.08208,2.48726 -1.07798,1.07289 -1.59275,2.69365 -1.59275,5.07391 l 0,3.05808 -10.47658,0 0,5.56067 10.47658,0 0,3.39959 z"
       id="path304"
       style="fill:#ffffff;fill-opacity:1;fill-rule:nonzero;stroke:none" />
  </g>
</svg>
