{
  "accessors": [
    {
      "bufferView": 2,
      "componentType": 5126,
      "count": 5364,
      "max": [
        38.582679748535156,
        44.55144119262695,
        30.95471954345703
      ],
      "min": [
        2.2026819387552243e-13,
        0.0,
        1.421084963300432e-14
      ],
      "type": "VEC3"
    },
    {
      "bufferView": 2,
      "byteOffset": 64368,
      "componentType": 5126,
      "count": 5364,
      "max": [
        1.0,
        1.0,
        1.0
      ],
      "min": [
        -1.0,
        -1.0,
        -1.0
      ],
      "type": "VEC3"
    },
    {
      "bufferView": 0,
      "componentType": 5125,
      "count": 9354,
      "type": "SCALAR"
    },
    {
      "bufferView": 2,
      "byteOffset": 128736,
      "componentType": 5126,
      "count": 146,
      "max": [
        0.28200000524520874,
        0.28200000524520874,
        0.15299999713897705
      ],
      "min": [
        0.0,
        0.0,
        0.0
      ],
      "type": "VEC3"
    },
    {
      "bufferView": 2,
      "byteOffset": 130488,
      "componentType": 5126,
      "count": 146,
      "max": [
        1.0,
        1.0,
        1.0
      ],
      "min": [
        -1.0,
        -1.0,
        -1.0
      ],
      "type": "VEC3"
    },
    {
      "bufferView": 0,
      "byteOffset": 37416,
      "componentType": 5125,
      "count": 432,
      "type": "SCALAR"
    },
    {
      "bufferView": 2,
      "byteOffset": 132240,
      "componentType": 5126,
      "count": 144,
      "max": [
        0.28200000524520874,
        0.28200000524520874,
        0.15299999713897705
      ],
      "min": [
        0.0,
        0.0,
        0.0
      ],
      "type": "VEC3"
    },
    {
      "bufferView": 2,
      "byteOffset": 133968,
      "componentType": 5126,
      "count": 144,
      "max": [
        1.0,
        1.0,
        1.0
      ],
      "min": [
        -1.0,
        -1.0,
        -1.0
      ],
      "type": "VEC3"
    },
    {
      "bufferView": 0,
      "byteOffset": 39144,
      "componentType": 5125,
      "count": 432,
      "type": "SCALAR"
    },
    {
      "bufferView": 2,
      "byteOffset": 135696,
      "componentType": 5126,
      "count": 48,
      "max": [
        0.24828140437602997,
        0.24828140437602997,
        0.15299999713897705
      ],
      "min": [
        0.033718619495630264,
        0.033718619495630264,
        0.0
      ],
      "type": "VEC3"
    },
    {
      "bufferView": 2,
      "byteOffset": 136272,
      "componentType": 5126,
      "count": 48,
      "max": [
        1.0,
        1.0,
        0.0
      ],
      "min": [
        -1.0,
        -1.0,
        0.0
      ],
      "type": "VEC3"
    },
    {
      "bufferView": 0,
      "byteOffset": 40872,
      "componentType": 5125,
      "count": 144,
      "type": "SCALAR"
    },
    {
      "bufferView": 2,
      "byteOffset": 136848,
      "componentType": 5126,
      "count": 48,
      "max": [
        0.24828140437602997,
        0.24828140437602997,
        0.15299999713897705
      ],
      "min": [
        0.033718619495630264,
        0.033718619495630264,
        0.0
      ],
      "type": "VEC3"
    },
    {
      "bufferView": 2,
      "byteOffset": 137424,
      "componentType": 5126,
      "count": 48,
      "max": [
        1.0,
        1.0,
        0.0
      ],
      "min": [
        -1.0,
        -1.0,
        0.0
      ],
      "type": "VEC3"
    },
    {
      "bufferView": 0,
      "byteOffset": 41448,
      "componentType": 5125,
      "count": 144,
      "type": "SCALAR"
    },
    {
      "bufferView": 2,
      "byteOffset": 138000,
      "componentType": 5126,
      "count": 554,
      "max": [
        10.0,
        30.70404052734375,
        1.7493759969511302e-06
      ],
      "min": [
        -10.211265563964844,
        -10.0,
        -12.0
      ],
      "type": "VEC3"
    },
    {
      "bufferView": 2,
      "byteOffset": 144648,
      "componentType": 5126,
      "count": 554,
      "max": [
        1.0,
        1.0,
        1.0
      ],
      "min": [
        -1.0,
        -1.0,
        -1.0
      ],
      "type": "VEC3"
    },
    {
      "bufferView": 1,
      "componentType": 5126,
      "count": 554,
      "max": [
        0.9784050583839417,
        0.9917752742767334
      ],
      "min": [
        0.021594107151031494,
        0.584173321723938
      ],
      "type": "VEC2"
    },
    {
      "bufferView": 0,
      "byteOffset": 42024,
      "componentType": 5125,
      "count": 2880,
      "type": "SCALAR"
    },
    {
      "bufferView": 2,
      "byteOffset": 151296,
      "componentType": 5126,
      "count": 4,
      "max": [
        0.3223472535610199,
        0.0,
        0.5
      ],
      "min": [
        -0.3223472535610199,
        0.0,
        -0.5
      ],
      "type": "VEC3"
    },
    {
      "bufferView": 2,
      "byteOffset": 151344,
      "componentType": 5126,
      "count": 4,
      "max": [
        0.0,
        1.0,
        0.0
      ],
      "min": [
        0.0,
        1.0,
        0.0
      ],
      "type": "VEC3"
    },
    {
      "bufferView": 1,
      "byteOffset": 4432,
      "componentType": 5126,
      "count": 4,
      "max": [
        1.0,
        1.0
      ],
      "min": [
        0.0,
        0.0
      ],
      "type": "VEC2"
    },
    {
      "bufferView": 0,
      "byteOffset": 53544,
      "componentType": 5125,
      "count": 6,
      "type": "SCALAR"
    }
  ],
  "asset": {
    "extras": {
      "author": "CourseDesign (https://sketchfab.com/CourseDesign)",
      "license": "CC-BY-4.0 (http://creativecommons.org/licenses/by/4.0/)",
      "source": "https://sketchfab.com/3d-models/flame-detector-07421f3bd4d24faa95692a2be0513767",
      "title": "Flame detector"
    },
    "generator": "Sketchfab-16.33.0",
    "version": "2.0"
  },
  "bufferViews": [
    {
      "buffer": 0,
      "byteLength": 53568,
      "name": "floatBufferViews",
      "target": 34963
    },
    {
      "buffer": 0,
      "byteLength": 4464,
      "byteOffset": 53568,
      "byteStride": 8,
      "name": "floatBufferViews",
      "target": 34962
    },
    {
      "buffer": 0,
      "byteLength": 151392,
      "byteOffset": 58032,
      "byteStride": 12,
      "name": "floatBufferViews",
      "target": 34962
    }
  ],
  "buffers": [
    {
      "byteLength": 209424,
      "uri": "scene.bin"
    }
  ],
  "extensionsUsed": [
    "KHR_materials_specular"
  ],
  "images": [
    {
      "uri": "textures/Screenshot_2024-09-06_at_23.05.04-removebg-preview_baseColor.png"
    },
    {
      "uri": "textures/Screenshot_2024-09-06_at_23.05.04-removebg-preview_specularf0.png"
    }
  ],
  "materials": [
    {
      "doubleSided": true,
      "name": "Color_M06",
      "pbrMetallicRoughness": {
        "baseColorFactor": [
          0.00913406,
          0.00913406,
          0.00913406,
          1.0
        ]
      }
    },
    {
      "doubleSided": true,
      "name": "material",
      "pbrMetallicRoughness": {
        "baseColorFactor": [
          0.0368894,
          0.0368894,
          0.0368894,
          1.0
        ]
      }
    },
    {
      "doubleSided": true,
      "name": "Material.001",
      "pbrMetallicRoughness": {
        "baseColorFactor": [
          0.526323,
          0.138868,
          0.128398,
          1.0
        ],
        "metallicFactor": 0.0,
        "roughnessFactor": 0.5
      }
    },
    {
      "alphaMode": "BLEND",
      "doubleSided": true,
      "extensions": {
        "KHR_materials_specular": {
          "specularColorFactor": [
            1.0,
            1.0,
            1.0
          ],
          "specularFactor": 1.0,
          "specularTexture": {
            "index": 1
          }
        }
      },
      "name": "Screenshot_2024-09-06_at_23.05.04-removebg-preview",
      "pbrMetallicRoughness": {
        "baseColorTexture": {
          "index": 0
        },
        "metallicFactor": 0.0,
        "roughnessFactor": 0.5
      }
    }
  ],
  "meshes": [
    {
      "name": "Object_0",
      "primitives": [
        {
          "attributes": {
            "NORMAL": 1,
            "POSITION": 0
          },
          "indices": 2,
          "material": 0,
          "mode": 4
        }
      ]
    },
    {
      "name": "Object_1",
      "primitives": [
        {
          "attributes": {
            "NORMAL": 4,
            "POSITION": 3
          },
          "indices": 5,
          "material": 0,
          "mode": 4
        }
      ]
    },
    {
      "name": "Object_2",
      "primitives": [
        {
          "attributes": {
            "NORMAL": 7,
            "POSITION": 6
          },
          "indices": 8,
          "material": 1,
          "mode": 4
        }
      ]
    },
    {
      "name": "Object_3",
      "primitives": [
        {
          "attributes": {
            "NORMAL": 10,
            "POSITION": 9
          },
          "indices": 11,
          "material": 0,
          "mode": 4
        }
      ]
    },
    {
      "name": "Object_4",
      "primitives": [
        {
          "attributes": {
            "NORMAL": 13,
            "POSITION": 12
          },
          "indices": 14,
          "material": 1,
          "mode": 4
        }
      ]
    },
    {
      "name": "Object_5",
      "primitives": [
        {
          "attributes": {
            "NORMAL": 16,
            "POSITION": 15,
            "TEXCOORD_0": 17
          },
          "indices": 18,
          "material": 2,
          "mode": 4
        }
      ]
    },
    {
      "name": "Object_6",
      "primitives": [
        {
          "attributes": {
            "NORMAL": 20,
            "POSITION": 19,
            "TEXCOORD_0": 21
          },
          "indices": 22,
          "material": 3,
          "mode": 4
        }
      ]
    }
  ],
  "nodes": [
    {
      "children": [
        1
      ],
      "matrix": [
        1.0,
        0.0,
        0.0,
        0.0,
        0.0,
        2.220446049250313e-16,
        -1.0,
        0.0,
        0.0,
        1.0,
        2.220446049250313e-16,
        0.0,
        0.0,
        0.0,
        0.0,
        1.0
      ],
      "name": "Sketchfab_model"
    },
    {
      "children": [
        2
      ],
      "name": "root"
    },
    {
      "children": [
        3,
        14,
        17
      ],
      "matrix": [
        1.0,
        0.0,
        0.0,
        0.0,
        0.0,
        2.220446049250313e-16,
        1.0,
        0.0,
        0.0,
        -1.0,
        2.220446049250313e-16,
        0.0,
        0.0,
        0.0,
        0.0,
        1.0
      ],
      "name": "GLTF_SceneRootNode"
    },
    {
      "children": [
        4,
        7
      ],
      "matrix": [
        0.1103137657046318,
        0.0,
        0.0,
        0.0,
        0.0,
        0.1103137657046318,
        0.0,
        0.0,
        0.0,
        0.0,
        0.1103137657046318,
        0.0,
        -0.07678811997175217,
        0.015015051700174809,
        0.2733146548271179,
        1.0
      ],
      "name": "SketchUp_5"
    },
    {
      "children": [
        5
      ],
      "matrix": [
        0.009999999776482582,
        0.0,
        0.0,
        0.0,
        0.0,
        0.009999999776482582,
        0.0,
        0.0,
        0.0,
        0.0,
        0.009999999776482582,
        0.0,
        0.0,
        0.0,
        0.0,
        1.0
      ],
      "name": "group_0_1"
    },
    {
      "children": [
        6
      ],
      "matrix": [
        1.0,
        0.0,
        0.0,
        0.0,
        0.0,
        1.0,
        0.0,
        0.0,
        0.0,
        0.0,
        1.0,
        0.0,
        0.0,
        0.0,
        3.0517578125e-05,
        1.0
      ],
      "name": "Mesh_0"
    },
    {
      "mesh": 0,
      "name": "Object_6"
    },
    {
      "children": [
        8,
        11
      ],
      "matrix": [
        1.0,
        0.0,
        0.0,
        0.0,
        0.0,
        1.0,
        0.0,
        0.0,
        0.0,
        0.0,
        1.0,
        0.0,
        0.051913321018218994,
        0.08175720274448395,
        0.15748047828674316,
        1.0
      ],
      "name": "instance_0_4"
    },
    {
      "children": [
        9,
        10
      ],
      "name": "Mesh.001_2"
    },
    {
      "mesh": 1,
      "name": "Object_9"
    },
    {
      "mesh": 2,
      "name": "Object_10"
    },
    {
      "children": [
        12,
        13
      ],
      "name": "Mesh.002_3"
    },
    {
      "mesh": 3,
      "name": "Object_12"
    },
    {
      "mesh": 4,
      "name": "Object_13"
    },
    {
      "children": [
        15
      ],
      "matrix": [
        0.009999999776482582,
        0.0,
        0.0,
        0.0,
        0.0,
        0.0,
        0.009999999776482582,
        0.0,
        0.0,
        -0.009999999776482582,
        0.0,
        0.0,
        0.0,
        0.0,
        0.0,
        1.0
      ],
      "name": "basic-square-round-corners-podium-003_7"
    },
    {
      "children": [
        16
      ],
      "matrix": [
        1.175621509552002,
        0.0,
        0.0,
        0.0,
        0.0,
        0.9020487666130066,
        0.0,
        0.0,
        0.0,
        0.0,
        0.6313206553459167,
        0.0,
        0.0,
        0.0,
        0.0,
        1.0
      ],
      "name": "basic-square-round-corners-podium_6"
    },
    {
      "mesh": 5,
      "name": "Object_16"
    },
    {
      "children": [
        18
      ],
      "matrix": [
        0.3656531572341919,
        0.0,
        0.0,
        0.0,
        0.0,
        0.3656531572341919,
        0.0,
        0.0,
        0.0,
        0.0,
        0.3656531572341919,
        0.0,
        0.0,
        0.07579442858695984,
        0.09631063789129257,
        1.0
      ],
      "name": "Screenshot_2024-09-06_at_23.05.04-removebg-preview_8"
    },
    {
      "mesh": 6,
      "name": "Object_18"
    }
  ],
  "samplers": [
    {
      "magFilter": 9729,
      "minFilter": 9987,
      "wrapS": 33071,
      "wrapT": 33071
    },
    {
      "magFilter": 9729,
      "minFilter": 9987,
      "wrapS": 10497,
      "wrapT": 10497
    }
  ],
  "scene": 0,
  "scenes": [
    {
      "name": "Sketchfab_Scene",
      "nodes": [
        0
      ]
    }
  ],
  "textures": [
    {
      "sampler": 0,
      "source": 0
    },
    {
      "sampler": 1,
      "source": 1
    }
  ]
}
